<?xml version="1.0" encoding="UTF-8" standalone="no"?>
<svg
   xmlns:dc="http://purl.org/dc/elements/1.1/"
   xmlns:cc="http://creativecommons.org/ns#"
   xmlns:rdf="http://www.w3.org/1999/02/22-rdf-syntax-ns#"
   xmlns:svg="http://www.w3.org/2000/svg"
   xmlns="http://www.w3.org/2000/svg"
   xmlns:sodipodi="http://sodipodi.sourceforge.net/DTD/sodipodi-0.dtd"
   xmlns:inkscape="http://www.inkscape.org/namespaces/inkscape"
   inkscape:export-ydpi="200"
   inkscape:export-xdpi="200"
   inkscape:export-filename="/home/patrick/LectureProjects/LectureNotes/SoSe2020/ES/img/shortchord.png"
   sodipodi:docname="shortchord.svg"
   inkscape:version="1.0 (4035a4fb49, 2020-05-01)"
   id="svg8"
   version="1.1"
   viewBox="0 0 147.90208 147.90208"
   height="559"
   width="559">
  <defs
     id="defs2">
    <linearGradient
       id="linearGradient3019"
       y2="373.86313"
       gradientUnits="userSpaceOnUse"
       x2="404.46588"
       gradientTransform="matrix(0.09167266,0,0,0.09167266,198.92069,137.24986)"
       y1="489.14001"
       x1="382.34">
      <stop
         id="stop3015"
         stop-opacity=".82639"
         offset="0" />
      <stop
         id="stop3017"
         offset="1" />
    </linearGradient>
  </defs>
  <sodipodi:namedview
     inkscape:guide-bbox="true"
     showguides="true"
     inkscape:snap-global="true"
     inkscape:window-maximized="1"
     inkscape:window-y="21"
     inkscape:window-x="0"
     inkscape:window-height="1059"
     inkscape:window-width="1920"
     fit-margin-bottom="85"
     fit-margin-right="50"
     fit-margin-left="50"
     fit-margin-top="85"
     units="px"
     showgrid="true"
     inkscape:document-rotation="0"
     inkscape:current-layer="layer1"
     inkscape:document-units="mm"
     inkscape:cy="180.8469"
     inkscape:cx="151.51848"
     inkscape:zoom="0.90268456"
     inkscape:pageshadow="2"
     inkscape:pageopacity="0.0"
     borderopacity="1.0"
     bordercolor="#666666"
     pagecolor="#ffffff"
     id="base">
    <inkscape:grid
       originy="-90.391628"
       originx="-132.9024"
       id="grid833"
       type="xygrid" />
  </sodipodi:namedview>
  <metadata
     id="metadata5">
    <rdf:RDF>
      <cc:Work
         rdf:about="">
        <dc:format>image/svg+xml</dc:format>
        <dc:type
           rdf:resource="http://purl.org/dc/dcmitype/StillImage" />
        <dc:title></dc:title>
      </cc:Work>
    </rdf:RDF>
  </metadata>
  <g
     transform="translate(-132.9024,-90.391632)"
     id="layer1"
     inkscape:groupmode="layer"
     inkscape:label="Layer 1">
    <path
       sodipodi:nodetypes="zzzz"
       id="path1075"
       d="m 156.10416,211.66667 c 18.06475,15.28725 109.64493,-14.16854 111.45251,-32.78988 1.80757,-18.62135 -69.79147,-76.88674 -96.02199,-64.20752 -26.23052,12.67921 -33.49526,81.71016 -15.43052,96.9974 z"
       style="fill:#b71c1c;fill-opacity:1;stroke:none;stroke-width:0.264583px;stroke-linecap:butt;stroke-linejoin:miter;stroke-opacity:1" />
    <g
       style="stroke-width:1.5875;stroke-miterlimit:4;stroke-dasharray:none"
       inkscape:label="notelines"
       id="g1211">
      <path
         id="path1158"
         d="m 149.48958,164.04167 h 19.84375"
         style="fill:none;stroke:#ffffff;stroke-width:1.5875;stroke-linecap:round;stroke-linejoin:miter;stroke-miterlimit:4;stroke-dasharray:none;stroke-opacity:1"
         sodipodi:nodetypes="cc" />
      <path
         style="fill:#ff0000;fill-opacity:1;stroke:#ffffff;stroke-width:1.5875;stroke-linecap:round;stroke-linejoin:miter;stroke-miterlimit:4;stroke-dasharray:none;stroke-opacity:1"
         d="m 149.48958,169.33333 h 19.84375"
         id="path1160" />
      <path
         sodipodi:nodetypes="cc"
         style="fill:#ff0000;fill-opacity:1;stroke:#ffffff;stroke-width:1.5875;stroke-linecap:round;stroke-linejoin:miter;stroke-miterlimit:4;stroke-dasharray:none;stroke-opacity:1"
         d="M 149.48958,174.625 H 168.275"
         id="path1162" />
      <path
         sodipodi:nodetypes="cc"
         style="fill:#ff0000;fill-opacity:1;stroke:#ffffff;stroke-width:1.5875;stroke-linecap:round;stroke-linejoin:miter;stroke-miterlimit:4;stroke-dasharray:none;stroke-opacity:1"
         d="m 149.48958,179.91666 19.57917,1e-5"
         id="path1164" />
      <path
         sodipodi:nodetypes="cc"
         style="fill:#ff0000;fill-opacity:1;stroke:#ffffff;stroke-width:1.5875;stroke-linecap:round;stroke-linejoin:miter;stroke-miterlimit:4;stroke-dasharray:none;stroke-opacity:1"
         d="m 149.48958,185.20833 h 22.75417"
         id="path1166" />
      <path
         style="fill:none;stroke:#ffffff;stroke-width:1.5875;stroke-linecap:round;stroke-linejoin:miter;stroke-miterlimit:4;stroke-dasharray:none;stroke-opacity:1"
         d="m 198.4375,164.04166 41.53958,1e-5"
         id="path1170"
         sodipodi:nodetypes="cc" />
      <path
         sodipodi:nodetypes="cc"
         style="fill:none;stroke:#fffffe;stroke-width:1.5875;stroke-linecap:round;stroke-linejoin:miter;stroke-miterlimit:4;stroke-dasharray:none;stroke-opacity:1"
         d="m 248.97291,164.04167 9.78959,0"
         id="path1172" />
      <path
         sodipodi:nodetypes="cc"
         style="fill:none;stroke:#ffffff;stroke-width:1.5875;stroke-linecap:round;stroke-linejoin:miter;stroke-miterlimit:4;stroke-dasharray:none;stroke-opacity:1"
         d="m 180.18125,169.33333 h 7.40833"
         id="path1174" />
      <path
         sodipodi:nodetypes="cc"
         style="fill:none;stroke:#ffffff;stroke-width:1.5875;stroke-linecap:round;stroke-linejoin:miter;stroke-miterlimit:4;stroke-dasharray:none;stroke-opacity:1"
         d="m 178.85833,174.625 h 7.40833"
         id="path1176" />
      <path
         sodipodi:nodetypes="cc"
         style="fill:none;stroke:#fffffe;stroke-width:1.5875;stroke-linecap:round;stroke-linejoin:miter;stroke-miterlimit:4;stroke-dasharray:none;stroke-opacity:1"
         d="m 203.46458,169.33333 h 2.64583"
         id="path1180" />
      <path
         sodipodi:nodetypes="cc"
         style="fill:none;stroke:#fffffe;stroke-width:1.5875;stroke-linecap:round;stroke-linejoin:miter;stroke-miterlimit:4;stroke-dasharray:none;stroke-opacity:1"
         d="m 243.15208,185.20833 h 17.46251"
         id="path1186" />
      <path
         style="fill:none;stroke:#fffffe;stroke-width:1.5875;stroke-linecap:round;stroke-linejoin:miter;stroke-miterlimit:4;stroke-dasharray:none;stroke-opacity:1"
         d="m 244.73958,179.91667 h 19.57917"
         id="path1188"
         sodipodi:nodetypes="cc" />
      <path
         style="fill:none;stroke:#fffffe;stroke-width:1.5875;stroke-linecap:round;stroke-linejoin:miter;stroke-miterlimit:4;stroke-dasharray:none;stroke-opacity:1"
         d="m 246.0625,174.625 h 18.52084"
         id="path1190"
         sodipodi:nodetypes="cc" />
      <path
         sodipodi:nodetypes="cc"
         style="fill:none;stroke:#fffffe;stroke-width:1.5875;stroke-linecap:round;stroke-linejoin:miter;stroke-miterlimit:4;stroke-dasharray:none;stroke-opacity:1"
         d="m 247.65,169.33333 h 14.2875"
         id="path1192" />
    </g>
    <g
       inkscape:label="short Chord"
       style="fill:#ffffff;fill-opacity:1"
       id="g939"
       transform="matrix(0.0127256,0,0,-0.0127256,122.42413,293.35515)">
      <path
         id="path937"
         style="fill:#ffffff;fill-opacity:1;fill-rule:nonzero;stroke:#b71c1c;stroke-width:20.7914;stroke-miterlimit:4;stroke-dasharray:none;stroke-opacity:1"
         d="m 5903.6807,7972.2895 c -124.2466,30.2993 -246.1394,157.7985 -259.6704,271.6085 -2.1562,18.1604 2.4658,84.3571 10.6357,151.9039 13.8046,114.2498 20.0905,140.3497 137.5205,571.0466 67.6826,248.2325 123.1488,458.1725 123.2599,466.5308 0.3756,27.2705 -17.0988,59.3191 -40.473,74.2754 -32.0755,20.5216 -67.4941,19.3372 -115.0909,-3.8455 -45.285,-22.0585 -139.6279,-104.1842 -168.5363,-146.7202 -15.7783,-23.2189 -41.3538,-107.3937 -131.0456,-431.2993 l -111.4394,-402.4487 -383.0056,5.2746 3.893,14.9359 c 2.1403,8.2133 124.295,451.7142 271.464,985.5513 l 267.5711,970.6212 193.8407,-2.669 c 152.2244,-2.097 193.1803,-4.422 190.7857,-10.921 -5.6448,-15.33 -198.9398,-716.7539 -199.0147,-722.1914 -0.041,-2.9567 25.3654,6.1713 56.4566,20.2795 85.2759,38.6965 146.5799,52.1425 236.6009,51.8879 74.0971,-0.2164 77.7811,-0.8182 121.4376,-23.2334 26.4135,-13.506 63.2802,-40.7973 89.216,-66.0478 74.142,-72.1878 105.9305,-152.3941 104.3413,-263.2898 -0.8453,-61.3842 -6.0213,-82.6199 -127.2839,-525.2461 l -126.3678,-461.2766 5.0026,-51.1907 c 2.7576,-28.1536 10.4306,-62.6966 17.0536,-76.7612 30.2975,-64.2942 118.0701,-80.5434 188.7866,-34.9509 14.8332,9.5666 28.0201,16.3037 29.311,14.9768 1.2828,-1.3268 19.6877,-56.2994 40.8918,-122.1527 l 38.5618,-119.7413 -15.21,-16.0151 c -22.3299,-23.5148 -87.8068,-65.6101 -130.3463,-83.8031 -89.414,-38.2373 -238.783,-54.635 -319.1458,-35.0415 z m -1594.073,492.1535 c -424.308,63.6338 -638.0507,596.4167 -477.6389,1190.5691 28.8662,106.9246 66.3226,202.2699 124.3144,316.4512 l 43.6804,86.0037 69.1193,-3.217 c 75.5918,-3.51 119.0459,4.837 179.3115,34.459 41.5513,20.43 104.6249,78.427 139.3841,128.164 38.6513,55.316 40.2189,65.006 5.8628,36.262 -75.6445,-63.281 -178.9393,-89.353 -345.9231,-87.311 -128.9872,1.522 -163.684,11.29 -216.9958,60.763 -68.4794,63.55 -73.6293,102.594 -67.3498,510.335 3.7052,239.871 2.9135,313.459 -3.5155,326.29 -11.9044,23.803 -37.8127,37.106 -61.4275,31.537 -26.2438,-6.19 -75.1754,-57.107 -101.7881,-105.913 l -21.7144,-39.826 -8.4336,-267.73 c -7.4544,-236.654 -9.6655,-268.087 -19.0544,-270.778 -5.8448,-1.686 -52.5709,-13.282 -103.8338,-25.78 -51.2671,-12.502 -98.4792,-24.17 -104.9261,-25.933 -11.1318,-3.035 -11.1578,24.347 -0.4954,551.739 6.1604,305.214 13.4353,594.043 16.1436,641.842 l 4.9283,86.909 104.2311,24.266 c 57.3253,13.346 109.9298,25.665 116.8951,27.375 12.3439,3.037 12.4594,-2.98 4.5869,-234.321 -4.4477,-130.591 -6.1028,-237.466 -3.6739,-237.499 2.4338,-0.03 16.9665,10.455 32.3209,23.307 44.8726,37.558 116.877,68.827 165.6776,71.952 98.5813,6.308 185.7373,-62.911 212.9534,-169.109 7.289,-28.45 8.008,-93.952 3.7422,-341.845 -5.1643,-300.418 -4.9862,-307.316 8.5339,-339.204 l 13.8061,-32.549 61.21,3.138 c 0,0 123.9508,8.353 148.57,12.623 79.4546,14.317 133.4368,35.6 209.4345,82.554 142.6724,88.157 268.1964,130.998 400.043,136.531 187.7864,7.884 355.8415,-70.972 465.734,-218.528 l 29.7076,-39.888 -43.3766,-157.254 c -23.8571,-86.489 -44.7707,-159.512 -46.477,-162.278 -1.6952,-2.766 -15.8664,12.419 -31.4682,33.745 -62.7733,85.811 -142.957,136.861 -238.4522,151.814 -142.3116,22.29 -245.1244,-13.009 -355.0713,-121.904 -120.2332,-119.086 -250.6973,-368.0078 -310.2673,-591.9939 -32.7127,-122.9951 -41.2125,-195.541 -39.1765,-334.2621 1.897,-129.1284 12.3028,-188.5423 45.3056,-258.6484 36.0537,-76.5897 111.1538,-124.8824 196.0168,-126.0511 123.3593,-1.6989 263.1568,48.4318 385.5463,138.255 26.7378,19.6257 49.2889,33.4144 50.1098,30.6449 0.8139,-2.7696 -23.1081,-93.9677 -53.1818,-202.6619 -40.2004,-145.2842 -58.0576,-200.0755 -67.4452,-206.8839 -27.4015,-19.8906 -112.0185,-64.4046 -162.5601,-85.5236 -108.9894,-45.5385 -251.0766,-65.9319 -352.9151,-50.6611 l -0.01,0.024 z m 2390.5026,26.5767 c -119.1107,34.1745 -226.4975,123.9587 -275.8265,230.621 -42.3754,91.6152 -54.4841,157.3002 -52.9491,287.1975 1.3954,119.7031 10.4962,174.0909 45.7895,274.3054 95.2367,270.4142 306.3616,481.437 538.1254,537.8519 63.1125,15.3634 166.4731,15.061 222.8911,-0.6553 93.323,-25.9866 191.1838,-94.0706 242.8763,-168.9695 64.4158,-93.3329 87.3272,-175.9652 90.1365,-325.1271 2.2796,-121.0199 -8.4334,-191.3909 -45.197,-296.8478 -92.3965,-265.0457 -292.8811,-472.1286 -518.4107,-535.47 -69.6158,-19.5513 -184.7164,-20.9085 -247.4357,-2.9141 v 0.01 z m 194.8529,311.9404 c 44.4956,20.5723 126.9611,104.0626 164.3904,166.4281 42.058,70.0795 84.9558,177.2449 102.1043,255.0822 19.4226,88.1518 17.4822,202.2865 -4.2372,248.9609 -69.1208,148.56 -272.6995,5.7677 -378.7404,-265.6808 -52.6383,-134.7329 -60.998,-313.1548 -17.87,-381.2781 24.1609,-38.1603 81.119,-48.1296 134.3529,-23.5123 z M 8596.323,8475.4729 c -82.8737,24.5585 -156.3255,90.0792 -195.7788,174.6345 -41.4369,88.818 -48.9492,134.4528 -46.8787,284.7976 1.9497,141.5765 8.0189,178.9494 48.5956,299.1252 94.0437,278.5553 309.2992,511.4646 517.2804,559.7146 55.9772,12.9847 141.8355,8.6496 187.2507,-9.4539 45.947,-18.3153 96.7869,-56.7258 124.637,-94.167 11.3459,-15.2598 21.5026,-26.8926 22.5681,-25.852 2.059,2.0113 218.5776,778.5441 218.6553,784.1851 0.025,1.836 86.8183,2.128 192.8783,0.667 180.554,-2.486 192.6044,-3.41 189.1966,-14.266 -1.9942,-6.383 -123.3195,-446.1612 -269.5921,-977.2835 -146.2764,-531.1177 -267.6217,-970.8945 -269.6508,-977.2772 -3.4097,-10.708 -18.6078,-11.4048 -195.638,-8.9668 -105.568,1.4539 -191.9049,5.1081 -191.8634,8.1187 0.041,3.0078 5.0822,19.5929 11.2034,36.8463 6.1252,17.2563 9.8266,32.7228 8.2282,34.3739 -1.6104,1.6594 -26.7335,-10.2348 -55.8531,-26.4173 -29.1206,-16.1786 -72.4359,-35.365 -96.2573,-42.6396 -57.5244,-17.5645 -150.7287,-20.4373 -198.9814,-6.1396 z m 273.0486,325.0999 c 135.5012,60.9559 276.799,342.6029 267.4123,533.0323 -3.7126,75.3657 -17.2832,117.389 -46.442,143.8133 -27.4332,24.8641 -45.2235,30.055 -91.8575,26.8218 -90.1927,-6.2625 -180.0868,-112.5504 -245.1598,-289.8702 -32.7187,-89.1558 -44.8768,-160.9713 -42.4693,-250.7829 2.4797,-92.2659 9.7577,-119.8408 39.8134,-150.8636 20.2451,-20.8938 26.6194,-23.5408 57.3842,-23.8315 19.4942,-0.2684 46.2711,4.9143 61.3187,11.6808 z M 7428.6635,8498.3671 c 0.053,3.8156 340.7762,1211.9453 359.703,1275.422 l 10.3866,34.8329 383.1977,-5.2773 -9.7536,-34.8418 c -5.3625,-19.1624 -9.8134,-36.8455 -9.8902,-39.2978 -0.033,-2.4403 26.1636,8.2856 58.3069,23.852 71.0467,34.4117 123.5566,48.0538 181.8669,47.2502 41.969,-0.578 85.5779,-10.8362 85.6917,-20.1542 -0.033,-2.391 -19.6052,-82.9608 -43.6258,-179.0499 -35.8289,-143.3247 -45.5117,-174.1043 -53.8931,-171.3867 -5.6235,1.8156 -27.2265,9.8049 -48.0102,17.7408 -83.2343,31.7782 -158.3729,16.2724 -221.9758,-45.8036 -69.7449,-68.0731 -81.8977,-99.8498 -203.572,-532.3563 l -106.8828,-379.9312 -190.7979,2.6276 c -104.9401,1.4451 -190.7797,4.3144 -190.7514,6.3733 z M 2726.7824,10249.076 c -10.3465,3.229 -11.4154,14.135 -10.1804,103.81 l 1.3798,100.198 14.8709,-4.393 c 57.3849,-16.963 164.2644,-12.795 242.5903,9.461 76.7998,21.823 101.3616,75.229 54.8351,119.237 -21.3301,20.179 -49.4201,30.245 -201.4857,72.21 -62.5263,17.258 -107.7343,74.499 -118.0349,149.473 -21.859,159.042 91.4735,307.824 268.9933,353.134 51.6553,13.184 204.7502,13.349 233.8965,0.251 l 18.1355,-8.152 -1.388,-100.788 c -1.2871,-93.464 -2.2339,-100.416 -12.9269,-95.609 -53.1721,23.872 -165.0965,30.143 -228.5372,12.809 -45.9582,-12.556 -84.7848,-56.412 -75.9413,-85.779 6.1634,-20.489 32.0572,-32.374 126.3385,-57.987 108.849,-29.572 152.4265,-50.319 182.9003,-87.074 29.5972,-35.7 42.7795,-76.725 46.4474,-144.508 8.3652,-154.513 -94.2832,-282.878 -262.9865,-328.868 -34.8491,-9.501 -253.5831,-15.325 -278.9067,-7.425 z m 1606.8991,360.546 c -73.3717,15.553 -140.9951,65.735 -181.3716,134.595 -72.6256,123.857 -80.5474,318.18 -19.0397,466.962 51.9418,125.632 146.1186,222.927 249.2372,257.49 51.7942,17.362 140.9662,13.06 195.8296,-9.451 137.7189,-56.503 218.8682,-262.996 181.5014,-461.841 -32.0634,-170.617 -121.2857,-302.412 -244.4883,-361.144 -67.6303,-32.239 -119.3524,-39.813 -181.6686,-26.611 z m 128.2933,221.287 c 55.8479,53.267 84.3074,139.732 86.1148,261.628 2.0325,129.418 -27.2302,200.238 -82.7278,201.002 -83.8211,1.155 -166.8147,-208.34 -141.7416,-357.801 21.0074,-125.247 74.4747,-165.756 138.3546,-104.829 z m 369.599,156.128 c 4.2123,145.593 10.4044,336.76 13.7692,424.816 l 6.1194,160.106 110.7993,26.656 c 60.9419,14.663 113.0445,26.553 115.7771,26.425 2.7375,-0.04 4.8262,-10.985 4.6453,-24.113 l -0.3289,-23.885 31.0818,26.72 c 33.5999,28.882 86.6713,55.85 120.8289,61.392 38.602,6.27 41.6802,-3.402 39.995,-125.762 l -1.4937,-108.451 -32.7541,3.62 c -47.3854,5.231 -77.1276,-1.914 -104.045,-24.992 -47.8353,-41.013 -63.6506,-93.577 -65.4881,-217.63 -0.6809,-49.456 -4.3142,-163.823 -7.9456,-254.154 l -6.6101,-164.232 -108.6532,-25.713 c -59.7585,-14.144 -111.9611,-25.672 -115.9998,-25.616 -5.3246,0.07 -5.239,73.172 0.3025,264.813 z m 582.8812,207.473 6.8763,333.661 -15.6221,-4.774 c -24.0716,-7.357 -81.6141,-21.667 -87.1858,-21.676 -2.7338,0.04 -4.4037,41.299 -3.7086,91.785 l 1.2643,91.801 51.5937,12.403 51.5936,12.401 5.8257,123.166 c 3.2142,67.747 6.5971,151.739 7.547,186.655 l 1.7263,63.483 104.8421,24.411 c 57.6622,13.42 110.4044,25.771 117.2011,27.443 11.8693,2.918 12.1681,-4.36 7.4603,-181.065 -2.6987,-101.259 -2.5359,-184.135 0.5269,-184.178 2.9917,-0.04 35.5427,7.148 72.3439,15.978 36.797,8.826 67.524,15.149 68.2778,14.046 0.7631,-1.093 -0.5914,-42.938 -2.8345,-92.97 l -4.1952,-90.971 -72.4667,-16.995 -72.472,-16.996 -4.1402,-300.639 c -2.2773,-165.356 -6.259,-316.077 -8.7811,-334.943 l -4.5857,-34.3 -108.8502,-25.761 c -59.8648,-14.17 -111.1498,-25.729 -113.9576,-25.694 -2.8127,0.04 -2.0177,150.216 1.7679,333.729 z" />
    </g>
  </g>
</svg>
